# xmcd
#
# Track frame offsets:
#	150
#	14218
#	34012
#	52883
#	67910
#	89125
#	112347
#	134303
#	144270
#	163994
#	180075
#	202770
#	222502
#	241334
#	262580
#
# Disc length: 3755 seconds
#
# Revision: 2
# Processed by: cddbd v1.5.1PL2 Copyright (c) Steve Scherf et al.
# Submitted via: audiograbber 1.81.03
#
DISCID=d20ea90f
DTITLE=Wrinkle Neck Mules - Pull The Brake
DYEAR=2006
DGENRE=Rock and Roll
TTITLE0=Liza
TTITLE1=Okeechobee
TTITLE2=Dust Of Saturday
TTITLE3=Eyes Down
TTITLE4=Sugar and Sunshine
TTITLE5=Light Of Day
TTITLE6=Lowlight
TTITLE7=Strangers Sojourners
TTITLE8=Weeps
TTITLE9=San Gabriel
TTITLE10=Push The Pedal
TTITLE11=True To The Vine
TTITLE12=Mecklenburg County
TTITLE13=When Things Unravel
TTITLE14=Put Your Guitars Where Your Mouth Is
EXTD=
EXTT0=
EXTT1=
EXTT2=
EXTT3=
EXTT4=
EXTT5=
EXTT6=
EXTT7=
EXTT8=
EXTT9=
EXTT10=
EXTT11=
EXTT12=
EXTT13=
EXTT14=
PLAYORDER=
